<svg xmlns="http://www.w3.org/2000/svg" style="display:none">
  <symbol id="menu" viewBox="0 0 24 24">
    <path d="M4 7h16M4 12h16M4 17h16" fill="none" stroke="currentColor" stroke-linecap="round" stroke-width="2"/>
  </symbol>
  <symbol id="close" viewBox="0 0 24 24">
    <path d="M6 6l12 12M18 6L6 18" fill="none" stroke="currentColor" stroke-linecap="round" stroke-width="2"/>
  </symbol>
  <symbol id="calendar" viewBox="0 0 24 24">
    <path d="M7 3v3M17 3v3M4 9h16M5 5h14a1 1 0 0 1 1 1v12a2 2 0 0 1-2 2H6a2 2 0 0 1-2-2V6a1 1 0 0 1 1-1Z" fill="none" stroke="currentColor" stroke-linecap="round" stroke-linejoin="round" stroke-width="2"/>
  </symbol>
  <symbol id="clock" viewBox="0 0 24 24">
    <circle cx="12" cy="12" r="8.5" fill="none" stroke="currentColor" stroke-width="2"/>
    <path d="M12 7.5v5l3 2" fill="none" stroke="currentColor" stroke-linecap="round" stroke-width="2"/>
  </symbol>
  <symbol id="phone" viewBox="0 0 24 24">
    <path d="M8.7 5.4a1.4 1.4 0 0 1 1.4-1.2h2.2a1.4 1.4 0 0 1 1.4 1.2l.5 3a1.4 1.4 0 0 1-.8 1.5l-1.5.7c1 1.9 2.6 3.5 4.5 4.5l.7-1.5a1.4 1.4 0 0 1 1.5-.8l3 .5a1.4 1.4 0 0 1 1.2 1.4v2.2a1.4 1.4 0 0 1-1.2 1.4 17.2 17.2 0 0 1-8.2-2.8 17.2 17.2 0 0 1-5.7-5.7A17.2 17.2 0 0 1 4.2 6.6 1.4 1.4 0 0 1 5.6 5.4h2.2Z" fill="none" stroke="currentColor" stroke-linecap="round" stroke-linejoin="round" stroke-width="1.9"/>
  </symbol>
  <symbol id="email" viewBox="0 0 24 24">
    <path d="M4 6h16v12H4z" fill="none" stroke="currentColor" stroke-linejoin="round" stroke-width="2"/>
    <path d="M4.5 7.2L12 13l7.5-5.8" fill="none" stroke="currentColor" stroke-linecap="round" stroke-linejoin="round" stroke-width="2"/>
  </symbol>
  <symbol id="map-pin" viewBox="0 0 24 24">
    <path d="M12 21s6-5.4 6-11a6 6 0 1 0-12 0c0 5.6 6 11 6 11Z" fill="none" stroke="currentColor" stroke-linejoin="round" stroke-width="2"/>
    <circle cx="12" cy="10" r="2.5" fill="currentColor"/>
  </symbol>
  <symbol id="whatsapp" viewBox="0 0 24 24">
    <path d="M12 4.2a7.8 7.8 0 0 0-6.6 12l-.9 3.6 3.7-.9A7.8 7.8 0 1 0 12 4.2Z" fill="none" stroke="currentColor" stroke-linejoin="round" stroke-width="2"/>
    <path d="M9.2 8.6c.2-.4.4-.4.6-.4h.5c.2 0 .5 0 .7.5s.7 1.7.8 1.9c.1.2.1.4 0 .6-.1.2-.2.3-.4.5-.2.2-.3.3-.5.5-.1.1-.2.3-.1.5.1.2.7 1.2 1.5 1.9 1.1.9 2 1.2 2.3 1.4.2.1.4 0 .6-.1.2-.2.7-.8.9-1.1.2-.3.4-.3.6-.2.2.1 1.6.8 1.9 1 .3.1.4.2.5.4.1.1.1.8-.2 1.5-.3.7-1.5 1.3-2 1.3-.5 0-.9.1-3-.8-2.6-1.1-4.3-3.8-4.5-4.1-.2-.3-1.1-1.4-1.1-2.7 0-1.3.7-1.9.9-2.1Z" fill="currentColor"/>
  </symbol>
  <symbol id="instagram" viewBox="0 0 24 24">
    <rect x="4.5" y="4.5" width="15" height="15" rx="4" fill="none" stroke="currentColor" stroke-width="2"/>
    <circle cx="12" cy="12" r="3.4" fill="none" stroke="currentColor" stroke-width="2"/>
    <circle cx="16.7" cy="7.4" r="1.1" fill="currentColor"/>
  </symbol>
  <symbol id="facebook" viewBox="0 0 24 24">
    <path d="M14 20v-6h2.2l.3-2.4H14V10c0-.7.2-1.2 1.3-1.2h1.4V6.6c-.2 0-1-.1-2-.1-2 0-3.4 1.2-3.4 3.5v1.6H9v2.4h2.3v6H14Z" fill="currentColor"/>
  </symbol>
  <symbol id="youtube" viewBox="0 0 24 24">
    <path d="M20.3 7.3a2.3 2.3 0 0 0-1.6-1.6C17.2 5.2 12 5.2 12 5.2s-5.2 0-6.7.5A2.3 2.3 0 0 0 3.7 7.3 24.4 24.4 0 0 0 3.2 12c0 1.5.2 3.1.5 4.7a2.3 2.3 0 0 0 1.6 1.6c1.5.5 6.7.5 6.7.5s5.2 0 6.7-.5a2.3 2.3 0 0 0 1.6-1.6c.3-1.6.5-3.2.5-4.7s-.2-3.1-.5-4.7Z" fill="none" stroke="currentColor" stroke-linejoin="round" stroke-width="2"/>
    <path d="M10 9.3v5.4L15 12l-5-2.7Z" fill="currentColor"/>
  </symbol>
  <symbol id="music-note" viewBox="0 0 24 24">
    <path d="M14 4v10.2A2.8 2.8 0 1 1 12 11.5V6.2l7-1.4v7.6a2.8 2.8 0 1 1-2-2.7V4.8L14 5.4V4Z" fill="currentColor"/>
  </symbol>
  <symbol id="piano" viewBox="0 0 24 24">
    <rect x="3" y="5" width="18" height="14" rx="2" fill="none" stroke="currentColor" stroke-width="2"/>
    <path d="M7 5v8M11 5v8M15 5v8M19 5v8" fill="none" stroke="currentColor" stroke-width="1.7"/>
    <path d="M6 13h2M10 13h2M14 13h2M18 13h2" fill="none" stroke="currentColor" stroke-width="2"/>
  </symbol>
  <symbol id="guitar" viewBox="0 0 24 24">
    <path d="M16.8 4.4l2.8 2.8-1 1-1-1-1.1 1.1c.8 1.4.6 3.3-.6 4.6l-4.5 4.5a3.6 3.6 0 1 1-5.1-5.1l4.5-4.5c1.3-1.2 3.2-1.4 4.6-.6l1.1-1.1-1-1 1-1 2.8 2.8" fill="none" stroke="currentColor" stroke-linecap="round" stroke-linejoin="round" stroke-width="1.9"/>
  </symbol>
  <symbol id="violin" viewBox="0 0 24 24">
    <path d="M14.8 3.8a3.6 3.6 0 0 1 1 3.8l1.3 1.3a2.5 2.5 0 0 1 0 3.6l-1.2 1.2-2.8-2.8 1.2-1.2a2.5 2.5 0 0 1 3.6 0l.1.1" fill="none" stroke="currentColor" stroke-linejoin="round" stroke-width="1.8"/>
    <path d="M11.7 8.5c1.7 1.7 2 4.3.6 5.8-1.4 1.5-1.8 2.2-1.3 3.2.3.8.1 1.7-.6 2.3a2.5 2.5 0 0 1-3.6-3.5c.7-.7 1.6-.9 2.4-.6 1 .4 1.7 0 3.2-1.3 1.5-1.4 4.1-1.1 5.8.6" fill="none" stroke="currentColor" stroke-linejoin="round" stroke-width="1.8"/>
  </symbol>
  <symbol id="drums" viewBox="0 0 24 24">
    <ellipse cx="12" cy="8" rx="6.5" ry="2.7" fill="none" stroke="currentColor" stroke-width="2"/>
    <path d="M5.5 8v5c0 1.5 2.9 2.7 6.5 2.7s6.5-1.2 6.5-2.7V8" fill="none" stroke="currentColor" stroke-width="2"/>
    <path d="M8 4.5l2 3M16 4.5l-2 3" fill="none" stroke="currentColor" stroke-linecap="round" stroke-width="2"/>
  </symbol>
  <symbol id="flute" viewBox="0 0 24 24">
    <path d="M3.5 15.5h13.8l2.7-2.7 1.5 1.5-1.2 1.2.7.7-1.2 1.2-.7-.7-1 1H3.5v-2.2Z" fill="none" stroke="currentColor" stroke-linejoin="round" stroke-width="1.9"/>
    <circle cx="7.2" cy="16.6" r=".8" fill="currentColor"/>
    <circle cx="10.1" cy="16.6" r=".8" fill="currentColor"/>
    <circle cx="13" cy="16.6" r=".8" fill="currentColor"/>
  </symbol>
  <symbol id="ukulele" viewBox="0 0 24 24">
    <path d="M15.8 5.2 18.8 8l-.9.9-.8-.7-.8.8a4 4 0 0 1-.8 4.5l-2.6 2.5a3.8 3.8 0 1 1-5.4-5.4l2.5-2.6a4 4 0 0 1 4.5-.8l.8-.8-.7-.8.9-.9Z" fill="none" stroke="currentColor" stroke-linecap="round" stroke-linejoin="round" stroke-width="1.8"/>
  </symbol>
  <symbol id="microphone" viewBox="0 0 24 24">
    <rect x="9" y="4" width="6" height="10" rx="3" fill="none" stroke="currentColor" stroke-width="2"/>
    <path d="M6.5 11.5a5.5 5.5 0 0 0 11 0M12 17v3M9 20h6" fill="none" stroke="currentColor" stroke-linecap="round" stroke-width="2"/>
  </symbol>
  <symbol id="theory" viewBox="0 0 24 24">
    <path d="M5 7h14M5 11h14M5 15h10M15 4v11a2.4 2.4 0 1 0 1.7 2.3V8.5L20 8V15a2.4 2.4 0 1 0 1.7 2.3V6l-6.7 1Z" fill="none" stroke="currentColor" stroke-linecap="round" stroke-linejoin="round" stroke-width="1.8"/>
  </symbol>
  <symbol id="dance" viewBox="0 0 24 24">
    <circle cx="12" cy="5" r="2" fill="currentColor"/>
    <path d="M12 7.5 9.5 11l-2.7 1.2M12 7.5l2.8 2.3 3.2.7M11.8 10.8l-.8 3.2-2 3.5M12.2 10.8l2.6 2.8 1.2 4" fill="none" stroke="currentColor" stroke-linecap="round" stroke-linejoin="round" stroke-width="2"/>
  </symbol>
  <symbol id="child" viewBox="0 0 24 24">
    <circle cx="12" cy="5.5" r="2" fill="currentColor"/>
    <path d="M12 8.2v4.1M12 10.2 8.5 12M12 10.2l3.5 1.8M10.3 12.5 9 18M13.7 12.5 15 18" fill="none" stroke="currentColor" stroke-linecap="round" stroke-width="2"/>
  </symbol>
  <symbol id="stage" viewBox="0 0 24 24">
    <path d="M5 5h14v11H5z" fill="none" stroke="currentColor" stroke-width="2"/>
    <path d="M5 5c1.6 2.8 3.7 4.2 7 4.2S17.4 7.8 19 5M8 19h8M9 16v3M15 16v3" fill="none" stroke="currentColor" stroke-linecap="round" stroke-width="2"/>
  </symbol>
  <symbol id="award" viewBox="0 0 24 24">
    <circle cx="12" cy="9" r="4.5" fill="none" stroke="currentColor" stroke-width="2"/>
    <path d="M9.8 13.2 8 20l4-2.3 4 2.3-1.8-6.8" fill="none" stroke="currentColor" stroke-linejoin="round" stroke-width="2"/>
  </symbol>
  <symbol id="book-open" viewBox="0 0 24 24">
    <path d="M4.5 6.5A2.5 2.5 0 0 1 7 4h4.5a2.5 2.5 0 0 1 2 .9A2.5 2.5 0 0 1 15.5 4H20a2.5 2.5 0 0 1 2.5 2.5V18A2 2 0 0 0 20 16h-4.5a2.5 2.5 0 0 0-2 1 2.5 2.5 0 0 0-2-1H7a2 2 0 0 0-2.5 2V6.5Z" fill="none" stroke="currentColor" stroke-linejoin="round" stroke-width="1.8"/>
    <path d="M12 4.9V17" fill="none" stroke="currentColor" stroke-width="1.8"/>
  </symbol>
  <symbol id="teacher" viewBox="0 0 24 24">
    <path d="M4 5h12v8H4zM8 13v2.2a2.8 2.8 0 1 0 5.6 0V13M18.5 8.5V18" fill="none" stroke="currentColor" stroke-linecap="round" stroke-linejoin="round" stroke-width="1.9"/>
    <circle cx="18.5" cy="5.5" r="1.8" fill="currentColor"/>
  </symbol>
  <symbol id="heart" viewBox="0 0 24 24">
    <path d="M12 20s-7-4.7-7-10.1A4.1 4.1 0 0 1 12 7a4.1 4.1 0 0 1 7 2.9C19 15.3 12 20 12 20Z" fill="none" stroke="currentColor" stroke-linejoin="round" stroke-width="2"/>
  </symbol>
  <symbol id="shield" viewBox="0 0 24 24">
    <path d="M12 3.5 19 6v5c0 4.3-2.5 7.7-7 9.5C7.5 18.7 5 15.3 5 11V6l7-2.5Z" fill="none" stroke="currentColor" stroke-linejoin="round" stroke-width="2"/>
  </symbol>
  <symbol id="wallet" viewBox="0 0 24 24">
    <path d="M4 7.5A2.5 2.5 0 0 1 6.5 5H18a2 2 0 0 1 2 2v10a2 2 0 0 1-2 2H6.5A2.5 2.5 0 0 1 4 16.5v-9Z" fill="none" stroke="currentColor" stroke-width="2"/>
    <path d="M4 9h16M15.5 13h2" fill="none" stroke="currentColor" stroke-linecap="round" stroke-width="2"/>
  </symbol>
  <symbol id="star" viewBox="0 0 24 24">
    <path d="m12 4 2.5 5 5.5.8-4 4 .9 5.6-4.9-2.6-4.9 2.6.9-5.6-4-4 5.5-.8L12 4Z" fill="currentColor"/>
  </symbol>
  <symbol id="image" viewBox="0 0 24 24">
    <rect x="4" y="5" width="16" height="14" rx="2" fill="none" stroke="currentColor" stroke-width="2"/>
    <circle cx="9" cy="10" r="1.6" fill="currentColor"/>
    <path d="m7 17 3.4-3.4a1.2 1.2 0 0 1 1.7 0l1.8 1.8 1.6-1.6a1.2 1.2 0 0 1 1.7 0L19 17" fill="none" stroke="currentColor" stroke-linecap="round" stroke-linejoin="round" stroke-width="2"/>
  </symbol>
  <symbol id="quote" viewBox="0 0 24 24">
    <path d="M8.5 8A4.5 4.5 0 0 0 4 12.5V18h6v-5H7.5V12a3 3 0 0 1 3-3V8h-2ZM19.5 8A4.5 4.5 0 0 0 15 12.5V18h6v-5h-2.5V12a3 3 0 0 1 3-3V8h-2Z" fill="currentColor"/>
  </symbol>
  <symbol id="help" viewBox="0 0 24 24">
    <circle cx="12" cy="12" r="8.5" fill="none" stroke="currentColor" stroke-width="2"/>
    <path d="M9.6 9.4A2.7 2.7 0 1 1 13 13c-.8.4-1.3 1-1.3 1.9M11.9 17.4h.1" fill="none" stroke="currentColor" stroke-linecap="round" stroke-width="2"/>
  </symbol>
  <symbol id="play" viewBox="0 0 24 24">
    <circle cx="12" cy="12" r="9" fill="none" stroke="currentColor" stroke-width="2"/>
    <path d="M10 8.8v6.4L15.4 12 10 8.8Z" fill="currentColor"/>
  </symbol>
  <symbol id="chevron-down" viewBox="0 0 24 24">
    <path d="m6 9 6 6 6-6" fill="none" stroke="currentColor" stroke-linecap="round" stroke-linejoin="round" stroke-width="2"/>
  </symbol>
  <symbol id="chevron-left" viewBox="0 0 24 24">
    <path d="m14.5 6-6 6 6 6" fill="none" stroke="currentColor" stroke-linecap="round" stroke-linejoin="round" stroke-width="2"/>
  </symbol>
  <symbol id="chevron-right" viewBox="0 0 24 24">
    <path d="m9.5 6 6 6-6 6" fill="none" stroke="currentColor" stroke-linecap="round" stroke-linejoin="round" stroke-width="2"/>
  </symbol>
</svg>
