<svg xmlns="http://www.w3.org/2000/svg" viewBox="0 0 320 320" role="img" aria-labelledby="logoTitle logoDesc">
  <title id="logoTitle">STAFF School of Music &amp; Dance logo</title>
  <desc id="logoDesc">A monogram logo with gold musical lines on a dark blue background.</desc>
  <defs>
    <linearGradient id="logoBg" x1="0%" y1="0%" x2="100%" y2="100%">
      <stop offset="0%" stop-color="#0b1a30" />
      <stop offset="100%" stop-color="#16345f" />
    </linearGradient>
    <linearGradient id="logoGold" x1="0%" y1="0%" x2="100%" y2="100%">
      <stop offset="0%" stop-color="#d4af37" />
      <stop offset="100%" stop-color="#f3df9a" />
    </linearGradient>
  </defs>
  <rect x="16" y="16" width="288" height="288" rx="72" fill="url(#logoBg)" />
  <rect x="24" y="24" width="272" height="272" rx="64" fill="none" stroke="url(#logoGold)" stroke-width="4" opacity="0.8" />
  <g fill="none" stroke="url(#logoGold)" stroke-linecap="round" stroke-width="8">
    <path d="M64 104h192" />
    <path d="M64 132h192" />
    <path d="M64 160h144" />
    <path d="M64 188h144" />
    <path d="M176 86v106" />
  </g>
  <path d="M176 86c24 0 44 18 44 42 0 17-10 31-26 37v-44c0-10-8-18-18-18V86Z" fill="url(#logoGold)" />
  <circle cx="224" cy="176" r="26" fill="url(#logoGold)" />
  <text x="160" y="248" text-anchor="middle" font-family="Outfit, Arial, sans-serif" font-size="46" font-weight="700" fill="#ffffff" letter-spacing="4">STAFF</text>
  <text x="160" y="274" text-anchor="middle" font-family="Inter, Arial, sans-serif" font-size="16" fill="#dfe9f7" letter-spacing="3">MUSIC &amp; DANCE</text>
</svg>
